<?xml version="1.0" encoding="utf-8"?>
<svg xmlns="http://www.w3.org/2000/svg" id="Layer_1" style="enable-background:new 0 0 608.9 157.3;" version="1.1" viewBox="0 0 608.9 157.3" x="0px" y="0px">
<style type="text/css">
	.st0{fill:#DA291C;}
</style>
<switch>
	
	<g>
		<g id="save-the-children-name-outline">
			<path d="M174.4,67.5c-0.2,0.4-0.5,0.7-0.8,1c-0.3,0.2-0.7,0.3-1.1,0.3c-0.5,0-0.9-0.1-1.3-0.4c-0.5-0.3-1-0.5-1.6-0.9&#xA;				c-0.7-0.3-1.3-0.6-2-0.9c-0.8-0.3-1.7-0.4-2.6-0.4c-1.4-0.1-2.7,0.3-3.8,1.1c-0.8,0.7-1.3,1.8-1.2,2.9c0,0.7,0.2,1.4,0.8,2&#xA;				c0.6,0.6,1.2,1,2,1.3c0.9,0.4,1.8,0.8,2.8,1c1,0.3,2.1,0.7,3.2,1c1.1,0.4,2.2,0.8,3.2,1.4c1,0.5,2,1.2,2.8,2&#xA;				c0.8,0.8,1.5,1.8,2,2.9c0.5,1.3,0.8,2.7,0.8,4.2c0,1.7-0.3,3.4-0.9,5.1c-0.6,1.5-1.5,2.9-2.7,4.1c-1.3,1.2-2.8,2.2-4.4,2.8&#xA;				c-1.9,0.7-3.9,1-5.9,1c-1.2,0-2.5-0.1-3.7-0.4c-1.2-0.2-2.5-0.6-3.7-1.1c-1.2-0.4-2.3-1-3.3-1.6c-1-0.6-1.9-1.3-2.7-2.1l2.7-4.2&#xA;				c0.2-0.3,0.5-0.6,0.8-0.8c0.4-0.2,0.7-0.3,1.2-0.3c0.6,0,1.1,0.2,1.6,0.5c0.5,0.3,1.2,0.7,1.8,1.1c0.8,0.4,1.5,0.8,2.4,1.1&#xA;				c1,0.4,2.1,0.5,3.2,0.5c1.4,0.1,2.7-0.3,3.8-1.1c1-0.9,1.5-2.1,1.4-3.4c0-0.8-0.2-1.6-0.8-2.2c-0.5-0.6-1.2-1.1-2-1.4&#xA;				c-0.9-0.4-1.8-0.7-2.8-1c-1-0.3-2.1-0.6-3.2-0.9c-1.1-0.4-2.2-0.8-3.2-1.3c-1-0.5-2-1.2-2.8-2c-0.9-0.9-1.5-2-2-3.1&#xA;				c-0.5-1.5-0.8-3-0.8-4.6c0-1.5,0.3-2.9,0.9-4.3c0.6-1.4,1.5-2.7,2.6-3.7c1.2-1.1,2.6-2,4.2-2.6c1.8-0.7,3.8-1,5.7-1&#xA;				c1.2,0,2.3,0.1,3.5,0.3c1.1,0.2,2.2,0.5,3.2,0.8c1,0.4,1.9,0.8,2.9,1.3c0.9,0.5,1.6,1.1,2.4,1.7L174.4,67.5z"/>
			<path d="M200.5,98.6c-0.6,0-1.2-0.1-1.7-0.3c-0.5-0.3-0.8-0.8-1-1.3l-0.6-1.5c-0.7,0.6-1.3,1.1-1.9,1.5c-0.6,0.4-1.3,0.8-1.9,1.1&#xA;				c-0.7,0.3-1.4,0.5-2.1,0.7c-0.8,0.2-1.7,0.2-2.5,0.2c-1.1,0-2.3-0.1-3.4-0.5c-0.9-0.3-1.8-0.8-2.6-1.4c-0.7-0.6-1.3-1.4-1.6-2.3&#xA;				c-0.4-1-0.6-2.1-0.6-3.2c0-1,0.3-2,0.7-2.9c0.6-1.1,1.5-2.1,2.5-2.8c1.5-1,3.1-1.7,4.8-2.1c2.5-0.6,5.1-0.9,7.7-0.8v-1.2&#xA;				c0.1-1.2-0.2-2.5-1-3.5c-0.7-0.7-1.7-1.1-2.8-1.1c-0.8,0-1.6,0.1-2.3,0.3c-0.6,0.2-1.1,0.4-1.6,0.7c-0.5,0.3-0.9,0.5-1.4,0.7&#xA;				c-0.5,0.2-1.1,0.3-1.6,0.3c-0.5,0-1-0.1-1.4-0.4c-0.4-0.3-0.7-0.6-0.9-1l-1.5-2.5c1.6-1.4,3.4-2.5,5.4-3.2&#xA;				c2.1-0.7,4.2-1.1,6.4-1.1c1.5,0,3,0.2,4.4,0.8c1.3,0.5,2.4,1.2,3.3,2.2c0.9,1,1.6,2.1,2.1,3.4c0.5,1.4,0.7,2.8,0.7,4.3v16.8&#xA;				H200.5z M191.2,93.7c0.9,0,1.9-0.2,2.7-0.5c0.9-0.4,1.7-1,2.4-1.8v-3.7c-1.3,0-2.7,0.1-4,0.3c-0.9,0.1-1.7,0.4-2.5,0.8&#xA;				c-0.5,0.2-1,0.6-1.3,1.1c-0.2,0.4-0.4,0.8-0.4,1.3c-0.1,0.7,0.2,1.5,0.8,2C189.6,93.6,190.4,93.8,191.2,93.7z"/>
			<path d="M224.1,98.6h-7.3l-10.5-27h6.7c0.5,0,1,0.1,1.4,0.4c0.4,0.2,0.6,0.6,0.8,1l3.7,12.1c0.3,1,0.6,1.9,0.8,2.9&#xA;				s0.5,1.9,0.7,2.8c0.2-0.9,0.4-1.9,0.7-2.8s0.6-1.9,0.9-2.9l3.9-12.1c0.1-0.4,0.4-0.8,0.8-1c0.4-0.3,0.9-0.4,1.4-0.4h6.4&#xA;				L224.1,98.6z"/>
			<path d="M248.8,71.2c1.7,0,3.3,0.3,4.9,0.8c1.4,0.5,2.7,1.3,3.8,2.4c1.1,1.1,2,2.4,2.5,3.9c0.6,1.7,0.9,3.4,0.9,5.2&#xA;				c0,0.5,0,1-0.1,1.5c0,0.3-0.1,0.6-0.3,0.9c-0.1,0.2-0.3,0.4-0.6,0.5c-0.3,0.1-0.6,0.1-0.9,0.1h-15.6c0.1,1.8,0.8,3.6,2.1,4.9&#xA;				c1.2,1,2.7,1.6,4.3,1.5c0.8,0,1.6-0.1,2.4-0.3c0.6-0.2,1.2-0.5,1.8-0.8c0.5-0.3,1-0.5,1.5-0.8c0.4-0.2,0.9-0.3,1.4-0.3&#xA;				c0.6,0,1.1,0.2,1.5,0.7l2.3,2.9c-0.8,0.9-1.7,1.7-2.7,2.3c-0.9,0.6-1.9,1.1-3,1.4c-1,0.3-2,0.6-3,0.7c-1,0.1-1.9,0.2-2.9,0.2&#xA;				c-1.8,0-3.6-0.3-5.3-0.9c-1.6-0.6-3.1-1.5-4.3-2.7c-1.3-1.3-2.3-2.8-2.9-4.5c-0.8-2-1.1-4.1-1.1-6.3c0-1.7,0.3-3.5,0.9-5.1&#xA;				c1.2-3.2,3.7-5.8,6.8-7.1C245,71.6,246.9,71.2,248.8,71.2z M249,76.8c-1.3-0.1-2.6,0.4-3.6,1.3c-1,1.1-1.6,2.4-1.7,3.8h10.1&#xA;				c0-0.6-0.1-1.3-0.2-1.9c-0.2-0.6-0.4-1.1-0.8-1.6c-0.4-0.5-0.9-0.9-1.5-1.2C250.5,76.9,249.7,76.8,249,76.8L249,76.8z"/>
			<path d="M285.8,99c-1.2,0-2.3-0.2-3.4-0.6c-1.9-0.7-3.4-2.2-4-4.1c-0.4-1-0.5-2.1-0.5-3.2V77.2h-2.3c-0.8,0-1.5-0.6-1.5-1.4&#xA;				c0-0.1,0-0.1,0-0.2v-3.1l4.3-0.8l1.6-6.6c0.2-0.8,0.9-1.4,1.8-1.2h4.2v7.9h6.6v5.5H286v13.4c0,0.6,0.1,1.1,0.5,1.5&#xA;				c0.3,0.4,0.8,0.6,1.3,0.6c0.3,0,0.5,0,0.7-0.1c0.2-0.1,0.4-0.1,0.5-0.2c0.1-0.1,0.3-0.1,0.4-0.2c0.1-0.1,0.3-0.1,0.5-0.1&#xA;				c0.2,0,0.4,0,0.6,0.2c0.2,0.2,0.3,0.3,0.5,0.5l2.4,3.8c-1.1,0.8-2.2,1.4-3.5,1.8C288.6,98.8,287.2,99,285.8,99z"/>
			<path d="M297.1,98.6V59.7h8.1V74c1-0.8,2-1.5,3.2-2c1.3-0.5,2.7-0.8,4.1-0.8c1.3,0,2.7,0.2,3.9,0.8c1.1,0.5,2.1,1.2,2.9,2.1&#xA;				c0.8,1,1.4,2.1,1.8,3.2c0.4,1.3,0.6,2.7,0.6,4.1v17.1h-8.1V81.5c0.1-1.1-0.3-2.2-0.9-3.1c-0.7-0.8-1.7-1.2-2.7-1.1&#xA;				c-0.9,0-1.7,0.2-2.5,0.6c-0.8,0.4-1.6,0.9-2.2,1.5v19.2H297.1z"/>
			<path d="M339,71.2c1.7,0,3.3,0.3,4.9,0.8c1.4,0.5,2.7,1.3,3.8,2.4c1.1,1.1,2,2.4,2.5,3.9c0.6,1.7,0.9,3.4,0.9,5.2&#xA;				c0,0.5,0,1-0.1,1.5c0,0.3-0.1,0.6-0.3,0.9c-0.1,0.2-0.3,0.4-0.6,0.5c-0.3,0.1-0.6,0.1-0.9,0.1h-15.5c0.1,1.8,0.8,3.6,2.1,4.9&#xA;				c1.2,1,2.7,1.6,4.3,1.5c0.8,0,1.6-0.1,2.4-0.3c0.6-0.2,1.2-0.5,1.8-0.8c0.5-0.3,1-0.5,1.5-0.8c0.4-0.2,0.9-0.3,1.4-0.3&#xA;				c0.6,0,1.1,0.2,1.5,0.7l2.3,2.9c-0.8,0.9-1.7,1.7-2.7,2.3c-0.9,0.6-1.9,1.1-3,1.4c-1,0.3-2,0.6-3,0.7c-1,0.1-1.9,0.2-2.9,0.2&#xA;				c-1.8,0-3.6-0.3-5.3-0.9c-1.6-0.6-3.1-1.5-4.3-2.7c-1.3-1.3-2.3-2.8-2.9-4.5c-0.8-2-1.1-4.1-1.1-6.3c0-1.7,0.3-3.5,0.9-5.1&#xA;				c1.2-3.2,3.7-5.8,6.8-7.1C335.2,71.6,337.1,71.2,339,71.2z M339.2,76.8c-1.3-0.1-2.6,0.4-3.6,1.3c-1,1.1-1.6,2.4-1.7,3.8h10.1&#xA;				c0-0.6-0.1-1.3-0.2-1.9c-0.2-0.6-0.4-1.1-0.8-1.6c-0.4-0.5-0.9-0.9-1.5-1.2C340.7,76.9,340,76.8,339.2,76.8z"/>
			<path d="M393.2,88.5c0.2,0,0.4,0,0.6,0.1c0.2,0.1,0.4,0.2,0.6,0.4l3.6,3.8c-1.5,2-3.6,3.6-5.9,4.6c-2.7,1.1-5.5,1.6-8.4,1.6&#xA;				c-2.7,0-5.4-0.5-8-1.5c-2.3-1-4.3-2.4-6-4.2c-1.7-1.8-2.9-4-3.8-6.3c-0.9-2.6-1.3-5.2-1.3-7.9c0-2.7,0.5-5.5,1.5-8&#xA;				c1-2.4,2.4-4.5,4.2-6.3c1.8-1.8,4-3.2,6.4-4.1c2.6-1,5.4-1.5,8.3-1.5c1.4,0,2.8,0.1,4.1,0.4c1.2,0.2,2.5,0.6,3.6,1.1&#xA;				c1.1,0.4,2.1,1,3.1,1.6c0.9,0.6,1.8,1.3,2.5,2.1l-3.1,4.1c-0.2,0.3-0.4,0.5-0.7,0.7c-0.3,0.2-0.7,0.3-1.1,0.3&#xA;				c-0.3,0-0.6-0.1-0.9-0.2c-0.3-0.2-0.6-0.3-0.9-0.5c-0.3-0.2-0.7-0.4-1.1-0.7c-0.4-0.3-0.9-0.5-1.4-0.7c-0.6-0.2-1.2-0.4-1.8-0.5&#xA;				c-0.8-0.2-1.6-0.2-2.5-0.2c-1.5,0-3.1,0.3-4.5,0.9c-1.3,0.6-2.5,1.4-3.5,2.5c-1,1.1-1.8,2.5-2.3,3.9c-0.6,1.7-0.8,3.4-0.8,5.2&#xA;				c0,1.8,0.2,3.6,0.8,5.3c0.5,1.4,1.2,2.8,2.2,3.9c0.9,1,2,1.9,3.3,2.4c1.3,0.6,2.6,0.8,4,0.8c0.8,0,1.5,0,2.2-0.1&#xA;				c0.6-0.1,1.3-0.2,1.9-0.4c0.6-0.2,1.1-0.5,1.7-0.8c0.6-0.3,1.1-0.7,1.6-1.2c0.2-0.2,0.4-0.3,0.7-0.4&#xA;				C392.6,88.6,392.9,88.5,393.2,88.5z"/>
			<path d="M402.1,98.6V59.7h8.1V74c1-0.8,2-1.5,3.2-2c1.3-0.5,2.7-0.8,4.1-0.8c1.3,0,2.7,0.2,3.9,0.8c1.1,0.5,2.1,1.2,2.9,2.1&#xA;				c0.8,1,1.4,2.1,1.8,3.2c0.4,1.3,0.6,2.7,0.6,4.1v17.1h-8.1V81.5c0.1-1.1-0.3-2.2-0.9-3.1c-0.7-0.8-1.7-1.2-2.7-1.1&#xA;				c-0.9,0-1.7,0.2-2.5,0.6c-0.8,0.4-1.6,0.9-2.2,1.5v19.2H402.1z"/>
			<path d="M442,64.3c0,0.6-0.1,1.2-0.4,1.8c-0.3,0.6-0.6,1.1-1.1,1.5c-0.5,0.4-1,0.8-1.6,1c-0.6,0.3-1.3,0.4-1.9,0.4&#xA;				c-0.6,0-1.3-0.1-1.8-0.4c-0.6-0.2-1.1-0.6-1.5-1c-0.4-0.4-0.8-0.9-1-1.5c-0.3-0.6-0.4-1.2-0.4-1.8c0-0.6,0.1-1.3,0.4-1.8&#xA;				c0.2-0.6,0.6-1.1,1-1.5c0.4-0.4,1-0.8,1.5-1c0.6-0.2,1.2-0.4,1.8-0.4c0.7,0,1.3,0.1,1.9,0.4c1.2,0.5,2.1,1.4,2.6,2.5&#xA;				C441.9,63,442,63.6,442,64.3z M441.1,71.7v27H433v-27H441.1z"/>
			<path d="M456.5,59.7v38.9h-8.1V59.7H456.5z"/>
			<path d="M482.2,98.6c-0.4,0-0.9-0.1-1.3-0.3c-0.4-0.2-0.6-0.6-0.7-1l-0.6-2.1c-0.5,0.6-1.1,1.1-1.7,1.6c-0.6,0.5-1.2,0.9-1.9,1.2&#xA;				c-0.7,0.3-1.4,0.6-2.2,0.8c-0.8,0.2-1.7,0.3-2.6,0.3c-1.4,0-2.7-0.3-3.9-0.9c-1.2-0.6-2.3-1.6-3.1-2.7c-0.9-1.3-1.6-2.8-2-4.3&#xA;				c-0.5-1.9-0.8-3.9-0.7-5.8c0-1.9,0.3-3.8,0.8-5.6c0.5-1.6,1.3-3.1,2.4-4.5c1-1.2,2.2-2.2,3.7-3c1.5-0.7,3.1-1.1,4.7-1.1&#xA;				c1.2,0,2.4,0.2,3.5,0.6c0.9,0.4,1.8,0.9,2.6,1.6V59.7h8.1v38.9H482.2z M474,92.9c0.5,0,1.1-0.1,1.6-0.2c0.5-0.1,0.9-0.3,1.3-0.5&#xA;				c0.4-0.2,0.8-0.5,1.1-0.8c0.4-0.3,0.7-0.7,1.1-1.1V78.9c-0.5-0.6-1.2-1.1-2-1.4c-0.7-0.3-1.5-0.4-2.2-0.4c-0.7,0-1.4,0.1-2.1,0.4&#xA;				c-0.7,0.3-1.2,0.8-1.6,1.4c-0.5,0.8-0.9,1.6-1.1,2.5c-0.3,1.2-0.4,2.5-0.4,3.8c0,1.2,0.1,2.4,0.3,3.6c0.2,0.8,0.4,1.6,0.9,2.4&#xA;				c0.3,0.5,0.8,1,1.3,1.3C472.8,92.7,473.4,92.9,474,92.9z"/>
			<path d="M493.6,98.6v-27h4.8c0.3,0,0.7,0,1,0.1c0.2,0.1,0.5,0.2,0.7,0.3c0.2,0.2,0.3,0.4,0.4,0.6c0.1,0.3,0.2,0.6,0.2,0.9&#xA;				l0.4,2.5c0.9-1.4,2-2.6,3.3-3.6c1.2-0.9,2.6-1.3,4-1.3c1.1-0.1,2.1,0.3,3,0.9l-1,5.9c0,0.3-0.2,0.6-0.4,0.8&#xA;				c-0.2,0.2-0.5,0.2-0.8,0.2c-0.3,0-0.7,0-1-0.1c-0.5-0.1-1-0.1-1.5-0.1c-2.1,0-3.8,1.1-5,3.4v16.5H493.6z"/>
			<path d="M526.1,71.2c1.7,0,3.3,0.3,4.9,0.8c1.4,0.5,2.7,1.3,3.8,2.4c1.1,1.1,2,2.4,2.5,3.9c0.6,1.7,0.9,3.4,0.9,5.2&#xA;				c0,0.5,0,1-0.1,1.5c0,0.3-0.1,0.6-0.3,0.9c-0.1,0.2-0.3,0.4-0.6,0.5c-0.3,0.1-0.6,0.1-0.9,0.1h-15.5c0.1,1.8,0.8,3.6,2.1,4.9&#xA;				c1.2,1,2.7,1.6,4.3,1.5c0.8,0,1.6-0.1,2.4-0.3c0.6-0.2,1.2-0.5,1.8-0.8c0.5-0.3,1-0.5,1.5-0.8c0.4-0.2,0.9-0.3,1.4-0.3&#xA;				c0.6,0,1.1,0.2,1.5,0.7l2.3,2.9c-0.8,0.9-1.7,1.7-2.7,2.3c-0.9,0.6-1.9,1.1-3,1.4c-1,0.3-2,0.6-3,0.7c-1,0.1-1.9,0.2-2.9,0.2&#xA;				c-1.8,0-3.6-0.3-5.3-0.9c-1.6-0.6-3.1-1.5-4.3-2.7c-1.3-1.3-2.3-2.8-2.9-4.5c-0.8-2-1.1-4.1-1.1-6.3c0-1.7,0.3-3.5,0.9-5.1&#xA;				c1.2-3.2,3.7-5.8,6.8-7.1C522.3,71.6,524.2,71.2,526.1,71.2z M526.3,76.8c-1.3-0.1-2.6,0.4-3.6,1.3c-1,1.1-1.6,2.4-1.7,3.8H531&#xA;				c0-0.6-0.1-1.3-0.2-1.9c-0.2-0.6-0.4-1.1-0.8-1.6c-0.4-0.5-0.9-0.9-1.5-1.2C527.8,76.9,527,76.8,526.3,76.8z"/>
			<path d="M543.4,98.6v-27h5c0.4,0,0.9,0.1,1.3,0.3c0.4,0.2,0.6,0.6,0.7,1l0.5,1.6c0.5-0.5,1.1-0.9,1.6-1.4&#xA;				c0.6-0.4,1.2-0.8,1.8-1.1c0.7-0.3,1.3-0.5,2.1-0.7c0.8-0.2,1.6-0.3,2.4-0.2c1.3,0,2.7,0.2,3.9,0.8c1.1,0.5,2.1,1.2,2.9,2.1&#xA;				c0.8,1,1.4,2.1,1.8,3.2c0.4,1.3,0.6,2.7,0.6,4.1v17.1h-8.1V81.5c0.1-1.1-0.3-2.2-0.9-3.1c-0.7-0.8-1.7-1.2-2.7-1.1&#xA;				c-0.9,0-1.7,0.2-2.5,0.6c-0.8,0.4-1.6,0.9-2.2,1.5v19.2H543.4z"/>
		</g>
		<g id="save-the-children-symbol">
			<path class="st0" d="M121.4,49.3c4.8-5.6,6.9-8.2,6.4-9.7c-0.6-1.3-1.8-2.3-3.1-2.6c-1.8-0.7-4.3-1-5.5-0.3&#xA;				c-1,0.8-1.9,1.8-2.7,2.8l-1.5,1.7l0,0c-1-1-2-2-3-2.8c-7.3-6.4-16.3-10.5-25.9-12c-3.9-4.1-8.9-6-13.9-5.3&#xA;				c-4.3,0.7-8.1,3.3-10.4,7c-9.9,3-18.7,8.6-25.7,16.3v0c-1.6-0.5-5,0.1-7.2,1.3c-1,0.4-1.8,1.3-2.1,2.3c-0.1,0.7,0.2,1.7,2.8,4.8&#xA;				l0,0c-6.9,10.9-9.8,23.8-8.4,36.6c1.5,12.8,7.6,24.6,17.3,33.1c3.4,3,7.2,5.5,11.2,7.4c18.8,9.1,40.8,8.3,58.9-2.1l0,0&#xA;				c1.5-0.9,2-2.7,1.3-4.2l-0.2-0.5c-3-6.6-12-26.9-7-45.3c2.1-7.7,8.2-15.9,13.4-22.4l0,0c5.6,8.6,8.4,18.8,8,29.1&#xA;				c-0.3,9.4-3.5,18.5-9.2,26c-0.3,0.3-0.3,0.7-0.2,1.1l0.6,1.3c0.3,0.5,0.9,0.8,1.4,0.5c0.2-0.1,0.3-0.2,0.4-0.3l0,0&#xA;				C132,94.5,133.8,68.6,121.4,49.3z M55.9,92.9c-2,10.1-2.4,20.5-1.3,30.8l0,0c-3.8-1.9-7.4-4.4-10.7-7.2&#xA;				c-8.8-7.6-14.7-18-16.8-29.5c-2-10.7-0.2-21.8,5.1-31.3l0,0l0,0l0,0c2,2.1,4.4,4.5,6.9,6.9c6.1,6.1,13.1,13,16.5,17.9&#xA;				C57.6,83.3,57,86.9,55.9,92.9 M109.4,47.2c-11.3,11.4-22,17.6-31.7,18.3c-7.5,0.6-15.4-1.7-23.5-6.6c-5.4-3.4-10.5-7.4-15-11.9&#xA;				l-0.3-0.3l0,0c5.6-6,12.6-10.3,20.5-12.7v0h0h0c-0.8,3.2-1,6.4-0.5,9.7c0.8,5.7,3.8,10.8,8.3,14.3c6.4,5,15.6,3.8,20.6-2.5&#xA;				c0.2-0.3,0.4-0.5,0.6-0.8c3.3-4.7,4.5-10.5,3.6-16.2c-0.2-1.1-0.4-2.2-0.7-3.2l0,0c5.7,2.2,11,5.3,15.5,9.4&#xA;				C107.6,45.4,108.5,46.2,109.4,47.2L109.4,47.2z"/>
		</g>
	</g>
</switch>

</svg>